<svg fill="#d12c0f"  height="512pt" viewBox="0 0 512 512.00099" width="512pt" xmlns="http://www.w3.org/2000/svg" ><path d="m0 216.800781h150.667969v78.398438h-150.667969zm0 0"/><path d="m0 108.398438h60.335938v78.402343h-60.335938zm0 0"/><path d="m0 325.199219h60.335938v78.402343h-60.335938zm0 0"/><path d="m90.335938 325.199219h150.667968v78.402343h-150.667968zm0 0"/><path d="m271 325.199219h150.667969v78.402343h-150.667969zm0 0"/><path d="m271 108.398438h150.667969v78.402343h-150.667969zm0 0"/><path d="m0 433.601562h150.667969v78.398438h-150.667969zm0 0"/><path d="m90.335938 108.398438h150.667968v78.402343h-150.667968zm0 0"/><path d="m180.667969 216.800781h150.664062v78.398438h-150.664062zm0 0"/><path d="m0 0h150.667969v78.402344h-150.667969zm0 0"/><path d="m180.667969 433.601562h150.664062v78.398438h-150.664062zm0 0"/><path d="m361.332031 0h150.667969v78.402344h-150.667969zm0 0"/><path d="m180.667969 0h150.664062v78.402344h-150.664062zm0 0"/><path d="m451.667969 108.398438h60.332031v78.402343h-60.332031zm0 0"/><path d="m361.332031 433.601562h150.667969v78.398438h-150.667969zm0 0"/><path d="m361.332031 216.800781h150.667969v78.398438h-150.667969zm0 0"/><path d="m451.667969 325.199219h60.332031v78.402343h-60.332031zm0 0"/></svg>