<svg id="Layer_1" enable-background="new 0 0 464 464" height="512" viewBox="0 0 464 464" width="512" xmlns="http://www.w3.org/2000/svg"><path d="m0 104.996v254c0 13.255 10.745 24 24 24h416c13.255 0 24-10.745 24-24v-242c0-19.882-16.118-36-36-36h-404c-13.255 0-24 10.745-24 24z" fill="#befa91"/><path d="m352 235.996c24.55 44.39 11.38 100.43-8 147h-239c101.03-59.84 116.21-99.49 113-124-6.54-49.94-93.29-66.66-92-107 1.03-32.13 57.18-56.29 101-71h96c-64.36 23.42-79.99 43.2-80 58-.02 32.95 77.31 39.71 109 97z" fill="#aefcfe"/><g fill="#d0ffad"><path d="m75 223.996h-51c-8.837 0-16-7.163-16-16s7.163-16 16-16h51c8.837 0 16 7.163 16 16s-7.163 16-16 16z"/><path d="m125 292.996h-80c-8.837 0-16-7.163-16-16s7.163-16 16-16h80c8.837 0 16 7.163 16 16s-7.163 16-16 16z"/><path d="m432 155.996h-67c-8.837 0-16-7.163-16-16s7.163-16 16-16h67c8.837 0 16 7.163 16 16s-7.163 16-16 16z"/><path d="m444 238.996h-34c-8.837 0-16-7.163-16-16s7.163-16 16-16h34c8.837 0 16 7.163 16 16s-7.163 16-16 16z"/><path d="m434 322.996h-12c-8.837 0-16-7.163-16-16s7.163-16 16-16h12c8.837 0 16 7.163 16 16s-7.163 16-16 16z"/></g><path d="m274.62 258.996c3.17 24.206-11.597 63.179-109.282 121.784-5.027 3.016-2.925 2.216-60.338 2.216 101.03-59.84 116.21-99.49 113-124-6.54-49.94-93.29-66.66-92-107 1.017-31.729 55.786-55.685 99.352-70.444 12.548-4.251 19.829 13.753 8.027 19.556-27.559 13.549-50.11 30.635-50.759 50.889-1.29 40.338 85.46 57.059 92 106.999z" fill="#ccfeff"/><path d="m264.346 251.667c-1.249-5.009-3.826-9.669-7.878-14.249-5.855-6.618-5.238-16.729 1.38-22.585 6.617-5.855 16.729-5.239 22.585 1.38 7.439 8.407 12.473 17.73 14.962 27.71 2.139 8.574-3.079 17.259-11.652 19.396-8.574 2.139-17.258-3.076-19.397-11.652z" fill="#fff"/><path d="m290.568 356.557c-8.037-3.673-11.574-13.166-7.9-21.203 6.909-15.115 11.399-29.591 13.348-43.024 1.268-8.744 9.383-14.81 18.13-13.538 8.745 1.268 14.807 9.385 13.538 18.13-2.384 16.445-7.738 33.853-15.912 51.735-3.672 8.033-13.162 11.575-21.204 7.9z" fill="#fff"/></svg>