<?xml version="1.0" encoding="UTF-8" standalone="no"?>
<svg
   xmlns:dc="http://purl.org/dc/elements/1.1/"
   xmlns:cc="http://creativecommons.org/ns#"
   xmlns:rdf="http://www.w3.org/1999/02/22-rdf-syntax-ns#"
   xmlns:svg="http://www.w3.org/2000/svg"
   xmlns="http://www.w3.org/2000/svg"
   xmlns:sodipodi="http://sodipodi.sourceforge.net/DTD/sodipodi-0.dtd"
   xmlns:inkscape="http://www.inkscape.org/namespaces/inkscape"
   id="_x33_0"
   enable-background="new 0 0 64 64"
   height="512"
   viewBox="0 0 64 64"
   width="512"
   version="1.1"
   sodipodi:docname="Megalopole.svg"
   inkscape:version="0.92.3 (2405546, 2018-03-11)">
  <metadata
     id="metadata61">
    <rdf:RDF>
      <cc:Work
         rdf:about="">
        <dc:format>image/svg+xml</dc:format>
        <dc:type
           rdf:resource="http://purl.org/dc/dcmitype/StillImage" />
      </cc:Work>
    </rdf:RDF>
  </metadata>
  <defs
     id="defs59" />
  <sodipodi:namedview
     pagecolor="#ffffff"
     bordercolor="#666666"
     borderopacity="1"
     objecttolerance="10"
     gridtolerance="10"
     guidetolerance="10"
     inkscape:pageopacity="0"
     inkscape:pageshadow="2"
     inkscape:window-width="1853"
     inkscape:window-height="1025"
     id="namedview57"
     showgrid="false"
     inkscape:zoom="0.921875"
     inkscape:cx="333.09814"
     inkscape:cy="221.44924"
     inkscape:window-x="67"
     inkscape:window-y="27"
     inkscape:window-maximized="1"
     inkscape:current-layer="_x33_0" />
  <g
     id="g54"
     transform="matrix(1.0927355,0,0,1.0853717,-3.1031294,-2.3602117)">
    <path
       d="M 9,23.303 3.869,31 H 16.132 L 11,23.303 V 13.234 L 2.757,18.18 9,20.677 Z"
       id="path2"
       inkscape:connector-curvature="0" />
    <path
       d="m 19,39 h 2 v -2 h 2 v -6 h -4.465 l 1.334,2 H 17 v 4 h 2 z"
       id="path4"
       inkscape:connector-curvature="0" />
    <path
       d="m 15,39 v 4 1 1 h 2 v -2 h 6 v 2 h 18 v -2 h 6 v 2 h 2 v -1 -1 -4 h -2 v 2 h -6 v -2 h -2 v 2 h -6 v -2 h -2 v 2 h -6 v -2 h -2 v 2 h -6 v -2 z"
       id="path6"
       inkscape:connector-curvature="0" />
    <path
       d="m 9,45 v -2 h 4 v -6 h 2 V 33 H 5 v 10 h 2 v 2 z"
       id="path8"
       inkscape:connector-curvature="0" />
    <path
       d="M 23,24.414 18.414,29 H 23 Z"
       id="path10"
       inkscape:connector-curvature="0" />
    <path
       d="m 21,45 h -2 v 2 h -6 v -2 h -2 v 2 H 5 V 45 H 3 v 4.001 L 21,49 Z"
       id="path12"
       inkscape:connector-curvature="0" />
    <path
       d="M 41,24.414 V 29 h 4.586 z"
       id="path14"
       inkscape:connector-curvature="0" />
    <path
       d="m 57,45 v -2 h 2 V 33 H 49 v 4 h 2 v 6 h 4 v 2 z"
       id="path16"
       inkscape:connector-curvature="0" />
    <path
       d="m 43,39 h 2 v -2 h 2 v -4 h -2.869 l 1.334,-2 H 41 v 6 h 2 z"
       id="path18"
       inkscape:connector-curvature="0" />
    <path
       d="m 35,38 v 1 h 2 v -2 h 2 V 21 H 25 v 16 h 2 v 2 h 2 v -1 -1 -4 c 0,-1.103 0.897,-2 2,-2 h 2 c 1.103,0 2,0.897 2,2 v 4 z M 34,27 c 0,0.552 -0.448,1 -1,1 h -2 c -0.552,0 -1,-0.448 -1,-1 v -2 c 0,-0.552 0.448,-1 1,-1 h 2 c 0.552,0 1,0.448 1,1 z"
       id="path20"
       inkscape:connector-curvature="0" />
    <path
       d="M 24.261,19 H 39.74 L 33,11.587 V 2.234 L 24.757,7.18 31,9.677 v 1.91 z"
       id="path22"
       inkscape:connector-curvature="0" />
    <path
       d="m 31,33 h 2 v 4 h -2 z"
       id="path24"
       inkscape:connector-curvature="0" />
    <path
       d="M 60.131,31 55,23.303 V 20.677 L 61.243,18.179 53,13.234 V 23.303 L 47.869,31 Z"
       id="path26"
       inkscape:connector-curvature="0" />
    <path
       d="M 35,51.547 V 53 h 1.444 C 36.094,52.401 35.596,51.898 35,51.547 Z"
       id="path28"
       inkscape:connector-curvature="0" />
    <path
       d="m 31,51 h 2 v 2 h -2 z"
       id="path30"
       inkscape:connector-curvature="0" />
    <path
       d="m 35,59 h 2 v 2 h -2 z"
       id="path32"
       inkscape:connector-curvature="0" />
    <path
       d="m 35,55 h 2 v 2 h -2 z"
       id="path34"
       inkscape:connector-curvature="0" />
    <path
       d="M 41,49 V 47 H 23 v 2 c 0,1.103 -0.897,2 -2,2 v 10 h 4 v -6 c 0,-3.309 2.691,-6 6,-6 h 2 c 3.309,0 6,2.691 6,6 v 6 h 4 V 51 c -1.103,0 -2,-0.897 -2,-2 z"
       id="path36"
       inkscape:connector-curvature="0" />
    <path
       d="m 45,61 h 5 v -6 c 0,-0.552 0.448,-1 1,-1 h 2 c 0.552,0 1,0.448 1,1 v 6 h 5 V 51 H 45 Z"
       id="path38"
       inkscape:connector-curvature="0" />
    <path
       d="m 59,47 h -6 v -2 h -2 v 2 h -6 v -2 h -2 v 4.001 L 61,49 v -4 h -2 z"
       id="path40"
       inkscape:connector-curvature="0" />
    <path
       d="m 27,59 h 2 v 2 h -2 z"
       id="path42"
       inkscape:connector-curvature="0" />
    <path
       d="m 31,55 h 2 v 2 h -2 z"
       id="path44"
       inkscape:connector-curvature="0" />
    <path
       d="m 27,55 h 2 v 2 h -2 z"
       id="path46"
       inkscape:connector-curvature="0" />
    <path
       d="m 5,61 h 5 v -6 c 0,-0.552 0.448,-1 1,-1 h 2 c 0.552,0 1,0.448 1,1 v 6 h 5 V 51 H 5 Z"
       id="path48"
       inkscape:connector-curvature="0" />
    <path
       d="M 27.556,53 H 29 V 51.547 C 28.404,51.898 27.906,52.401 27.556,53 Z"
       id="path50"
       inkscape:connector-curvature="0" />
    <path
       d="m 31,59 h 2 v 2 h -2 z"
       id="path52"
       inkscape:connector-curvature="0" />
  </g>
</svg>
