<svg id="Capa_1" enable-background="new 0 0 512 512" height="512" viewBox="0 0 512 512" width="512" xmlns="http://www.w3.org/2000/svg"><path d="m186.984 117.56h138.033v209.301h-138.033z" fill="#debf9b"/><path d="m294.111 117.56h30.905v209.301h-30.905z" fill="#deb281"/><path d="m267.315 216.32h-22.63c-2.638 0-4.777-2.139-4.777-4.777v-18.436c0-8.887 7.205-16.092 16.092-16.092 8.887 0 16.092 7.205 16.092 16.092v18.436c0 2.638-2.139 4.777-4.777 4.777z" fill="#4e829c"/><path d="m336.714 130.931-76.705-128.649c-1.814-3.042-6.205-3.042-8.018 0l-76.705 128.649c-1.864 3.126.38 7.099 4.009 7.099h153.409c3.63 0 5.874-3.973 4.01-7.099z" fill="#ef5350"/><path d="m336.714 130.931-76.705-128.649c-1.814-3.042-6.205-3.042-8.018 0l-6.194 10.388 60.012 118.261c1.864 3.126-.38 7.099-4.009 7.099h30.905c3.629 0 5.873-3.973 4.009-7.099z" fill="#f44336"/><path d="m127.089 288.81h257.743v204.029h-257.743z" fill="#d1a36f"/><path d="m22.011 212.732h105.078v280.106h-105.078z" fill="#debf9b"/><path d="m96.184 212.732h30.905v280.106h-30.905z" fill="#deb281"/><path d="m14.064 232.593h121.051c3.936 0 6.549-4.063 4.907-7.628l-60.526-131.4c-1.926-4.182-7.888-4.182-9.814 0l-60.526 131.4c-1.642 3.565.972 7.628 4.908 7.628z" fill="#ef5350"/><path d="m140.022 224.965-60.526-131.401c-1.926-4.182-7.888-4.182-9.814 0l-3.112 6.757 42.547 124.644c1.642 3.565-.971 7.628-4.907 7.628h30.905c3.936 0 6.549-4.063 4.907-7.628z" fill="#f44336"/><path d="m87.304 415.018h-22.63c-2.638 0-4.777-2.139-4.777-4.777v-18.436c0-8.887 7.205-16.092 16.092-16.092 8.887 0 16.092 7.205 16.092 16.092v18.436c0 2.638-2.138 4.777-4.777 4.777z" fill="#4e829c"/><path d="m384.832 212.732h105.078v280.106h-105.078z" fill="#debf9b"/><path d="m459.005 212.732h30.905v280.106h-30.905z" fill="#deb281"/><path d="m376.885 232.593h121.051c3.936 0 6.549-4.063 4.907-7.628l-60.526-131.4c-1.926-4.182-7.888-4.182-9.814 0l-60.526 131.4c-1.641 3.565.972 7.628 4.908 7.628z" fill="#ef5350"/><path d="m502.844 224.965-60.526-131.401c-1.926-4.182-7.888-4.182-9.814 0l-3.112 6.757 42.547 124.644c1.642 3.565-.971 7.628-4.907 7.628h30.905c3.935 0 6.549-4.063 4.907-7.628z" fill="#f44336"/><g fill="#4e829c"><path d="m450.126 415.018h-22.63c-2.638 0-4.777-2.139-4.777-4.777v-18.436c0-8.887 7.205-16.092 16.092-16.092 8.887 0 16.092 7.205 16.092 16.092v18.436c0 2.638-2.139 4.777-4.777 4.777z"/><path d="m87.304 328.727h-22.63c-2.638 0-4.777-2.139-4.777-4.777v-18.436c0-8.887 7.205-16.092 16.092-16.092 8.887 0 16.092 7.205 16.092 16.092v18.436c0 2.638-2.138 4.777-4.777 4.777z"/><path d="m450.126 328.727h-22.63c-2.638 0-4.777-2.139-4.777-4.777v-18.436c0-8.887 7.205-16.092 16.092-16.092 8.887 0 16.092 7.205 16.092 16.092v18.436c0 2.638-2.139 4.777-4.777 4.777z"/></g><path d="m345.202 275.485c0-11.145-9.035-20.18-20.18-20.18s-20.18 9.035-20.18 20.18h-28.662c0-11.145-9.035-20.18-20.18-20.18s-20.18 9.035-20.18 20.18h-28.662c0-11.145-9.035-20.18-20.18-20.18s-20.18 9.035-20.18 20.18h-39.709v30.905h257.743v-30.905z" fill="#ffd740"/><path d="m315.75 492.839h-119.501v-94.159c0-32.999 26.751-59.75 59.75-59.75 32.999 0 59.75 26.751 59.75 59.75v94.159z" fill="#46758c"/><path d="m491.396 512h-470.792c-11.379 0-20.604-9.225-20.604-20.604 0-11.379 9.225-20.604 20.604-20.604h470.793c11.379 0 20.604 9.225 20.604 20.604-.001 11.379-9.226 20.604-20.605 20.604z" fill="#b5672d"/><path d="m491.396 470.793h-30.905c11.379 0 20.604 9.225 20.604 20.604 0 11.379-9.225 20.604-20.604 20.604h30.905c11.379 0 20.604-9.225 20.604-20.604 0-11.38-9.225-20.604-20.604-20.604z" fill="#9e5118"/></svg>