<?xml version="1.0" encoding="UTF-8" standalone="no"?>
<svg
   xmlns:dc="http://purl.org/dc/elements/1.1/"
   xmlns:cc="http://creativecommons.org/ns#"
   xmlns:rdf="http://www.w3.org/1999/02/22-rdf-syntax-ns#"
   xmlns:svg="http://www.w3.org/2000/svg"
   xmlns="http://www.w3.org/2000/svg"
   xmlns:sodipodi="http://sodipodi.sourceforge.net/DTD/sodipodi-0.dtd"
   xmlns:inkscape="http://www.inkscape.org/namespaces/inkscape"
   height="512pt"
   viewBox="0 0 511 512"
   width="512pt"
   version="1.1"
   id="svg12"
   sodipodi:docname="Metropole.svg"
   inkscape:version="0.92.3 (2405546, 2018-03-11)">
  <metadata
     id="metadata18">
    <rdf:RDF>
      <cc:Work
         rdf:about="">
        <dc:format>image/svg+xml</dc:format>
        <dc:type
           rdf:resource="http://purl.org/dc/dcmitype/StillImage" />
        <dc:title></dc:title>
      </cc:Work>
    </rdf:RDF>
  </metadata>
  <defs
     id="defs16" />
  <sodipodi:namedview
     pagecolor="#ffffff"
     bordercolor="#666666"
     borderopacity="1"
     objecttolerance="10"
     gridtolerance="10"
     guidetolerance="10"
     inkscape:pageopacity="0"
     inkscape:pageshadow="2"
     inkscape:window-width="1853"
     inkscape:window-height="1025"
     id="namedview14"
     showgrid="false"
     inkscape:zoom="0.69140625"
     inkscape:cx="202.92726"
     inkscape:cy="406.09042"
     inkscape:window-x="67"
     inkscape:window-y="27"
     inkscape:window-maximized="1"
     inkscape:current-layer="svg12" />
  <path
     d="m226.5625 395.023438v116.96875h60v-116.96875l-30-20zm0 0"
     id="path2" />
  <path
     d="m256.628906 221.996094c-8.273437 0-15 6.730468-15 15 0 8.269531 6.726563 15 15 15 8.269532 0 15-6.730469 15-15 0-8.269532-6.730468-15-15-15zm0 0"
     id="path4" />
  <path
     d="M 386.10547,195.42578 271.5625,100.6585 c 10.4579,12.35731 -13.58086,-22.034197 -30,0.27119 l -114.54297,94.49609 c -3.45703,2.85156 -5.45703,7.09375 -5.45703,11.57031 v 289.9961 c 0,8.28515 6.71875,15 15,15 h 60 v -125 c 0,-5.01172 2.50781,-9.69532 6.67969,-12.48047 l 45,-30 c 5.03906,-3.35547 11.60156,-3.35547 16.64062,0 l 45,30 c 4.17188,2.78515 6.67969,7.46875 6.67969,12.48047 v 125 h 60 c 8.28125,0 15,-6.71485 15,-15 v -289.9961 c -0.004,-4.47656 -2.00391,-8.71875 -5.45703,-11.57031 z m -129.47656,86.57031 c -24.8125,0 -45,-20.1875 -45,-45 0,-24.8125 20.1875,-45 45,-45 24.8125,0 45,20.1875 45,45 0,24.8125 -20.1875,45 -45,45 z"
     id="path6"
     inkscape:connector-curvature="0"
     sodipodi:nodetypes="ccccssscsccccscssccsssss" />
  <path
     d="m.5 348.398438v148.601562c0 8.285156 6.714844 15 15 15h76l.066406-245.800781-85.613281 70.628906c-3.453125 2.847656-5.453125 7.09375-5.453125 11.570313zm0 0"
     id="path8" />
  <path
     d="m507.039062 336.828125-85.480468-70.519531-.003906 245.691406h75.9375c8.285156 0 15-6.71875 15-15v-148.601562c0-4.476563-2-8.722657-5.453126-11.570313zm0 0"
     id="path10" />
</svg>
