<?xml version="1.0" encoding="UTF-8" standalone="no"?>
<svg
   xmlns:dc="http://purl.org/dc/elements/1.1/"
   xmlns:cc="http://creativecommons.org/ns#"
   xmlns:rdf="http://www.w3.org/1999/02/22-rdf-syntax-ns#"
   xmlns:svg="http://www.w3.org/2000/svg"
   xmlns="http://www.w3.org/2000/svg"
   xmlns:sodipodi="http://sodipodi.sourceforge.net/DTD/sodipodi-0.dtd"
   xmlns:inkscape="http://www.inkscape.org/namespaces/inkscape"
   id="Capa_1"
   enable-background="new 0 0 512 512"
   height="512"
   viewBox="0 0 512 512"
   width="512"
   version="1.1"
   sodipodi:docname="ville.svg"
   inkscape:version="0.92.3 (2405546, 2018-03-11)">
  <metadata
     id="metadata287">
    <rdf:RDF>
      <cc:Work
         rdf:about="">
        <dc:format>image/svg+xml</dc:format>
        <dc:type
           rdf:resource="http://purl.org/dc/dcmitype/StillImage" />
        <dc:title></dc:title>
      </cc:Work>
    </rdf:RDF>
  </metadata>
  <defs
     id="defs285" />
  <sodipodi:namedview
     pagecolor="#ffffff"
     bordercolor="#666666"
     borderopacity="1"
     objecttolerance="10"
     gridtolerance="10"
     guidetolerance="10"
     inkscape:pageopacity="0"
     inkscape:pageshadow="2"
     inkscape:window-width="1853"
     inkscape:window-height="1025"
     id="namedview283"
     showgrid="false"
     inkscape:zoom="1.6875"
     inkscape:cx="263.40741"
     inkscape:cy="256"
     inkscape:window-x="67"
     inkscape:window-y="27"
     inkscape:window-maximized="1"
     inkscape:current-layer="Capa_1" />
  <path
     d="m127.089 288.81h257.743v204.029h-257.743z"
     fill="#d1a36f"
     id="path246" />
  <path
     d="m345.202 275.485c0-11.145-9.035-20.18-20.18-20.18s-20.18 9.035-20.18 20.18h-28.662c0-11.145-9.035-20.18-20.18-20.18s-20.18 9.035-20.18 20.18h-28.662c0-11.145-9.035-20.18-20.18-20.18s-20.18 9.035-20.18 20.18h-39.709v30.905h257.743v-30.905z"
     fill="#ffd740"
     id="path274" />
  <path
     d="m315.75 492.839h-119.501v-94.159c0-32.999 26.751-59.75 59.75-59.75 32.999 0 59.75 26.751 59.75 59.75v94.159z"
     fill="#46758c"
     id="path276" />
  <path
     d="M 382.86631,512 H 126.76377 c -6.18997,0 -11.20821,-9.225 -11.20821,-20.604 0,-11.379 5.01824,-20.604 11.20821,-20.604 h 256.10309 c 6.18998,0 11.20821,9.225 11.20821,20.604 -5.4e-4,11.379 -5.01878,20.604 -11.20876,20.604 z"
     id="path278"
     inkscape:connector-curvature="0"
     style="fill:#b5672d;stroke-width:0.73755163" />
  <path
     d="m 379.5992,470.793 h -21.71206 c 7.99423,0 14.47518,9.225 14.47518,20.604 0,11.379 -6.48095,20.604 -14.47518,20.604 h 21.71206 c 7.99422,0 14.47517,-9.225 14.47517,-20.604 0,-11.38 -6.48095,-20.604 -14.47517,-20.604 z"
     id="path280"
     inkscape:connector-curvature="0"
     style="fill:#9e5118;stroke-width:0.83817768" />
</svg>
